<svg width="18" height="12" viewBox="0 0 18 12" fill="none" xmlns="http://www.w3.org/2000/svg">
<path fill-rule="evenodd" clip-rule="evenodd" d="M14.623 1.56581C14.6 1.68172 14.6 1.82112 14.6 2.09991V9.79991C14.6 10.0787 14.6 10.2181 14.623 10.334C14.7177 10.8101 15.0898 11.1822 15.5659 11.2769C15.6818 11.2999 15.8212 11.2999 16.1 11.2999C16.3788 11.2999 16.5182 11.2999 16.6341 11.2769C17.1101 11.1822 17.4822 10.8101 17.5769 10.334C17.6 10.2181 17.6 10.0787 17.6 9.79992V2.09991C17.6 1.82112 17.6 1.68172 17.5769 1.56581C17.4822 1.08978 17.1101 0.71766 16.6341 0.622972C16.5182 0.599915 16.3788 0.599915 16.1 0.599915C15.8212 0.599915 15.6818 0.599915 15.5659 0.622972C15.0898 0.71766 14.7177 1.08978 14.623 1.56581ZM9.90002 4.49992C9.90002 4.22112 9.90002 4.08173 9.92308 3.96581C10.0178 3.48978 10.3899 3.11766 10.8659 3.02297C10.9818 2.99992 11.1212 2.99992 11.4 2.99992C11.6788 2.99992 11.8182 2.99992 11.9341 3.02297C12.4102 3.11766 12.7823 3.48978 12.877 3.96581C12.9 4.08173 12.9 4.22112 12.9 4.49992V9.79992C12.9 10.0787 12.9 10.2181 12.877 10.334C12.7823 10.8101 12.4102 11.1822 11.9341 11.2769C11.8182 11.2999 11.6788 11.2999 11.4 11.2999C11.1212 11.2999 10.9818 11.2999 10.8659 11.2769C10.3899 11.1822 10.0178 10.8101 9.92308 10.334C9.90002 10.2181 9.90002 10.0787 9.90002 9.79992V4.49992ZM5.32305 6.26581C5.29999 6.38173 5.29999 6.52113 5.29999 6.79992V9.79992C5.29999 10.0787 5.29999 10.2181 5.32305 10.334C5.41773 10.8101 5.78985 11.1822 6.26588 11.2769C6.3818 11.2999 6.52119 11.2999 6.79999 11.2999C7.07878 11.2999 7.21818 11.2999 7.3341 11.2769C7.81012 11.1822 8.18224 10.8101 8.27693 10.334C8.29999 10.2181 8.29999 10.0787 8.29999 9.79992V6.79992C8.29999 6.52113 8.29999 6.38173 8.27693 6.26581C8.18224 5.78978 7.81012 5.41766 7.3341 5.32298C7.21818 5.29992 7.07878 5.29992 6.79999 5.29992C6.52119 5.29992 6.3818 5.29992 6.26588 5.32298C5.78985 5.41766 5.41773 5.78978 5.32305 6.26581ZM0.523058 8.26581C0.5 8.38173 0.5 8.52113 0.5 8.79992V9.79992C0.5 10.0787 0.5 10.2181 0.523058 10.334C0.617746 10.8101 0.989863 11.1822 1.46589 11.2769C1.58181 11.2999 1.72121 11.2999 2 11.2999C2.27879 11.2999 2.41819 11.2999 2.53411 11.2769C3.01014 11.1822 3.38225 10.8101 3.47694 10.334C3.5 10.2181 3.5 10.0787 3.5 9.79992V8.79992C3.5 8.52113 3.5 8.38173 3.47694 8.26581C3.38225 7.78978 3.01014 7.41766 2.53411 7.32298C2.41819 7.29992 2.27879 7.29992 2 7.29992C1.72121 7.29992 1.58181 7.29992 1.46589 7.32298C0.989863 7.41766 0.617746 7.78978 0.523058 8.26581Z" fill="#050510"/>
</svg>
