<?xml version="1.0" encoding="UTF-8" standalone="no"?>
<svg
   width="25"
   height="12"
   viewBox="0 0 25 12"
   fill="none"
   version="1.1"
   id="svg1063"
   sodipodi:docname="Battery_15.svg"
   inkscape:version="1.2.1 (9c6d41e410, 2022-07-14)"
   xmlns:inkscape="http://www.inkscape.org/namespaces/inkscape"
   xmlns:sodipodi="http://sodipodi.sourceforge.net/DTD/sodipodi-0.dtd"
   xmlns="http://www.w3.org/2000/svg"
   xmlns:svg="http://www.w3.org/2000/svg">
  <defs
     id="defs1067" />
  <sodipodi:namedview
     id="namedview1065"
     pagecolor="#ffffff"
     bordercolor="#000000"
     borderopacity="0.25"
     inkscape:showpageshadow="2"
     inkscape:pageopacity="0.0"
     inkscape:pagecheckerboard="0"
     inkscape:deskcolor="#d1d1d1"
     showgrid="false"
     inkscape:zoom="24.62"
     inkscape:cx="6.925264"
     inkscape:cy="8.1844029"
     inkscape:window-width="1920"
     inkscape:window-height="1001"
     inkscape:window-x="-9"
     inkscape:window-y="-9"
     inkscape:window-maximized="1"
     inkscape:current-layer="svg1063" />
  <path
     fill-rule="evenodd"
     clip-rule="evenodd"
     d="M3.58944 0.159912H18.4106C19.6587 0.159912 20.1113 0.289868 20.5676 0.533898C21.0239 0.777928 21.382 1.13603 21.626 1.59233C21.87 2.04862 22 2.50122 22 3.74935V8.07047C22 9.3186 21.87 9.7712 21.626 10.2275C21.382 10.6838 21.0239 11.0419 20.5676 11.2859C20.1113 11.53 19.6587 11.6599 18.4106 11.6599H3.58944C2.34131 11.6599 1.88871 11.53 1.43242 11.2859C0.97612 11.0419 0.618016 10.6838 0.373986 10.2275C0.129956 9.7712 0 9.3186 0 8.07047V3.74935C0 2.50122 0.129956 2.04862 0.373986 1.59233C0.618016 1.13603 0.97612 0.777928 1.43242 0.533898C1.88871 0.289868 2.34131 0.159912 3.58944 0.159912ZM3.58944 1.15991C2.60246 1.15991 2.2579 1.22645 1.90401 1.41571C1.62199 1.56654 1.40663 1.7819 1.2558 2.06393C1.06654 2.41782 1 2.76237 1 3.74935V8.07047C1 9.05745 1.06654 9.40201 1.2558 9.7559C1.40663 10.0379 1.62199 10.2533 1.90401 10.4041C2.2579 10.5934 2.60246 10.6599 3.58944 10.6599H18.4106C19.3975 10.6599 19.7421 10.5934 20.096 10.4041C20.378 10.2533 20.5934 10.0379 20.7442 9.7559C20.9335 9.40201 21 9.05745 21 8.07047V3.74935C21 2.76237 20.9335 2.41782 20.7442 2.06393C20.5934 1.7819 20.378 1.56654 20.096 1.41571C19.7421 1.22645 19.3975 1.15991 18.4106 1.15991H3.58944ZM24.5 5.84991C24.5 7.08649 23 7.84991 23 7.84991V3.84991C23 3.84991 24.5 4.61334 24.5 5.84991Z"
     fill="#050510"
     id="path1059" />
  <rect
     x="2"
     y="2.07657"
     width="5.164907"
     height="7.6666698"
     rx="0.45910284"
     fill="#050510"
     id="rect1061"
     style="stroke-width:0.535667" />
</svg>
