<?xml version="1.0" encoding="UTF-8" standalone="no"?>
<svg
   width="16"
   height="12"
   viewBox="0 0 16 12"
   fill="none"
   version="1.1"
   id="svg3237"
   sodipodi:docname="Wi-Fi_60.svg"
   inkscape:version="1.2.1 (9c6d41e410, 2022-07-14)"
   xmlns:inkscape="http://www.inkscape.org/namespaces/inkscape"
   xmlns:sodipodi="http://sodipodi.sourceforge.net/DTD/sodipodi-0.dtd"
   xmlns="http://www.w3.org/2000/svg"
   xmlns:svg="http://www.w3.org/2000/svg">
  <defs
     id="defs3241" />
  <sodipodi:namedview
     id="namedview3239"
     pagecolor="#ffffff"
     bordercolor="#000000"
     borderopacity="0.25"
     inkscape:showpageshadow="2"
     inkscape:pageopacity="0.0"
     inkscape:pagecheckerboard="0"
     inkscape:deskcolor="#d1d1d1"
     showgrid="false"
     inkscape:zoom="23.128284"
     inkscape:cx="5.4694935"
     inkscape:cy="4.9074111"
     inkscape:window-width="1920"
     inkscape:window-height="1001"
     inkscape:window-x="-9"
     inkscape:window-y="-9"
     inkscape:window-maximized="1"
     inkscape:current-layer="svg3237" />
  <path
     fill-rule="evenodd"
     clip-rule="evenodd"
     d="m 8.30052,6.52365 c 1.22767,-8e-5 2.41148,0.45624 3.32148,1.28028 0.1231,0.11695 0.317,0.11441 0.437,-0.00572 L 13.2233,6.6218 C 13.2846,6.56009 13.3187,6.47638 13.3178,6.38939 13.3169,6.30241 13.2812,6.21941 13.2186,6.15896 10.4474,3.58121 6.15594,3.58121 3.38478,6.15896 3.32218,6.21941 3.28647,6.30245 3.28565,6.38946 3.28482,6.47648 3.31897,6.56018 3.38041,6.6218 L 4.54439,7.79821 C 4.66437,7.91834 4.85826,7.92088 4.98134,7.80393 5.89075,6.98043 7.07366,6.52416 8.30052,6.52365 Z m 2.23758,2.8076 C 10.6003,9.27014 10.6346,9.18604 10.6328,9.09881 10.6311,9.01158 10.5934,8.92895 10.5286,8.87043 9.24242,7.78253 7.35862,7.78253 6.07239,8.87043 6.00763,8.9289 5.96987,9.01151 5.96802,9.09874 5.96618,9.18597 6.00041,9.27009 6.06264,9.33125 L 8.077,11.3638 c 0.05904,0.0597 0.13953,0.0933 0.22352,0.0933 0.08399,0 0.16447,-0.0336 0.22351,-0.0933 z"
     fill="#050510"
     id="path3235"
     sodipodi:nodetypes="ccccsccccccccccccccscc" />
</svg>
